<?xml version="1.0" encoding="UTF-8"?>
<svg id="template" xmlns="http://www.w3.org/2000/svg" version="1.1" viewBox="0 0 841.9 1190.6">
  <rect fill="none" stroke="#898989" stroke-miterlimit="10" stroke-width="2.9px" x="12.4" y="14.2" width="817.1"
    height="1162.2" />
  <g fill="#898989">
    <path
      d="M760.4,1166.1c0-2.4,1.8-4.3,4.2-4.3s2.1.4,2.8,1.1l-.8.7c-.5-.5-1.2-.8-2-.8-1.7,0-3.1,1.5-3.1,3.3s1.4,3.2,3.1,3.2,2.7-1,2.7-2.3h-2.4v-.9h3.6c0,2.9-1.6,4.3-3.9,4.3s-4.2-1.9-4.2-4.3Z" />
    <path
      d="M769.5,1166.1c0-2.4,1.8-4.3,4.2-4.3s4.2,1.9,4.2,4.3-1.8,4.3-4.2,4.3-4.2-1.9-4.2-4.3ZM776.8,1166.1c0-1.8-1.3-3.3-3.1-3.3s-3.1,1.5-3.1,3.3,1.3,3.2,3.1,3.2,3.1-1.5,3.1-3.2Z" />
    <path d="M785.5,1170.3h-1.5l-3.3-3.5v3.5h-1.1v-8.3h1.1v3.6l2.8-3.6h1.3l-3.2,4.1,3.8,4.1Z" />
    <path d="M787.6,1169.2h3.9v1h-5v-8.3h4.9v1h-3.8v2.7h3.3v1h-3.3v2.5Z" />
    <path
      d="M797.6,1170.3l-2.2-3.1h-1.1v3.1h-1.1v-8.3h3.1c1.8,0,2.5,1.3,2.5,2.6s-.7,2.5-2.2,2.6l2.2,3.1h-1.3ZM794.3,1163v3.1h1.7c1.2,0,1.7-.6,1.7-1.6s-.5-1.6-1.4-1.6h-2Z" />
    <path d="M800.2,1169.7c0-.4.3-.7.8-.7s.8.3.8.7-.4.7-.8.7-.8-.3-.8-.7Z" />
    <path d="M808.8,1170.3l-.8-2.1h-3.6l-.8,2.1h-1.1l3.1-8.3h1.2l3.1,8.3h-1.1ZM804.8,1167.2h2.8l-1.4-3.8-1.4,3.8Z" />
    <path
      d="M815.4,1170.3l-2.2-3.1h-1.1v3.1h-1.1v-8.3h3.1c1.8,0,2.5,1.3,2.5,2.6s-.7,2.5-2.2,2.6l2.2,3.1h-1.3ZM812.2,1163v3.1h1.7c1.2,0,1.7-.6,1.7-1.6s-.5-1.6-1.4-1.6h-2Z" />
    <path d="M823.6,1162v1h-2.5v7.3h-1.1v-7.3h-2.5v-1h6.1Z" />
  </g>
</svg>