<?xml version="1.0" encoding="UTF-8"?>
<svg xmlns="http://www.w3.org/2000/svg" version="1.1" viewBox="0 0 300 300">
  <!-- Generator: Adobe Illustrator 29.5.1, SVG Export Plug-In . SVG Version: 2.1.0 Build 141)  -->
  <defs>
    <style>
      .st0 {
        display: none;
      }
    </style>
  </defs>
  <g id="aries" class="st0">
    <g>
      <polygon points="183.1 139.7 181.8 142.6 100.6 103.7 101.6 100.7 183.1 139.7"/>
      <polygon points="196.7 137.6 204.1 135.7 200.7 142.4 206.6 147.2 199.2 148.2 199.6 155.7 193.9 151.2 188.1 155.7 188.6 148.2 181.1 147.2 187.2 142.9 183.6 135.7 190.8 137.6 193.9 131.2 196.7 137.6"/>
      <path d="M232.6,157.2l-.5,7.5,7,1c.3,1.2-.2.8-.7,1.1-.8.6-5.3,2.8-5.4,3.2l3,7.2-6.7-2.4-3.8,6.4-2.1-6.4-7.4,1.4,3.4-6.7-5.4-4.8,7.3-1-.3-7c.6-.7,5,4.5,5.7,5l5.7-4.5Z"/>
      <path d="M88.1,109.7l-18.1,49.1c-.7,1.6-2.2.6-3.4.3l18.5-50,3,.5Z"/>
      <polygon points="94.1 96.7 99.1 97.2 95.7 100 97.6 104.7 93.1 103.9 91.6 108.2 89.1 103.9 84.6 105.2 86.6 100.9 82.6 98.4 87.1 97.1 86.6 92.2 90.4 94.7 94.1 91.7 94.1 96.7"/>
      <path d="M236.1,186.7l.5,4,4.5-.5-2.4,3.7,2.9,2.8h-4.5s-.5,4-.5,4l-3.2-2.5-3.3,2,.3-4.5-3.3-1c-1.1-1.1,3.2-1.7,3.5-2l-1.5-4.5,4.2,1.5c1.2-.3,1.1-3.2,2.8-3Z"/>
      <polygon points="70.1 162.7 68.8 166.4 72.1 169.2 68.4 170.6 69.1 174.2 65.4 172.3 62.1 175.2 61.9 171.1 58.1 170.7 60.6 167.9 58.6 164.2 62.7 164.5 63.6 160.7 66.4 164.1 70.1 162.7"/>
      <path d="M216.1,162.2l-12.5-8.8,1.7-2.6c2.4,2.6,9.4,5.7,11.3,8.1s-.3,1.9-.5,3.3Z"/>
      <polygon points="233.6 185.7 230.9 185.7 229.1 179.2 232.4 179.2 233.6 185.7"/>
    </g>
  </g>
  <g id="taurus" class="st0">
    <g>
      <path d="M170.6,175.1c-1.2-.8-7,0-7-1.3l5-4.1-3.5-7.2,7.5,2,2-7c1.1-.2.8,0,1.1.6.4.8,2.1,5.6,2.4,5.8l7-2-2.5,6.7,6,4.3-7.3,1.5.8,7.5-5.8-4.4-5.7,4.4v-7Z"/>
      <path d="M212.6,200.1l-5.3-5.4-6.2,3.9.9-7.5-7-1.5,6.4-4.2-2.9-6.8,7.5,2.5,3.5-6.5,1.5,7,7.5-1c.6.5-2.9,4.2-3.2,5-1.2,2.9,4.1,3.8,4.7,6.5-.6.5-6.5-.9-7.5.8v7.2Z"/>
      <path d="M129.1,155.6h7.5l-5,5.3,4.5,6.2-7.5-1c-.4,1.9-.6,4.2-1.3,6s0,1.2-1,1l-3.5-6-6.7,3.5,2.5-7.5c-1.9-.7-4-1.5-5.8-2.5s-.9.3-.7-1l6.4-2.1-1.4-7.4,6.7,3.5,4.8-5.5.5,7.5Z"/>
      <polygon points="85.2 78.5 92.1 77.6 88.6 83.3 93.6 88.6 86.4 89.5 86.1 96.6 80.9 91.2 74.6 95.6 75.4 88.1 68.6 86.1 75.1 82.6 72.1 75.1 78.9 78 83.1 71.6 85.2 78.5"/>
      <path d="M91.9,92.6l49.5,38.5c-.7.6-1.3,1.8-2.2,1.3l-47.3-36.3c-1.7-1-1.4-2.3,0-3.5Z"/>
      <path d="M59.1,138.1l.5-3,2,.2c15.6,6.2,32.7,10.1,48.2,16.3s6.1,2,2.2,4.3l-53-17.8Z"/>
      <path d="M150.6,128.1l.6,3.9,4.4.3-3,3,2.5,3.2h-4s-.8,4.5-.8,4.5l-2.6-3.4-3.7,1.9,1-4.5-4-2,3.8-1.5-1.3-4,4.2,2c.5,0,1.9-4.7,2.8-3.5Z"/>
      <path d="M169.6,144.1l-.8,4,3.8,2-3.4,1.8.9,3.7-3.7-1.4-2.8,3.4-.5-4h-4.5s2.5-3.3,2.5-3.3l-3-3.2h4.5c.1-1.4-.5-3,.7-4l2.6,3,3.7-2Z"/>
      <polygon points="248.2 183 252.6 181.1 251.7 185.5 255.1 186.8 251.6 188.6 253.1 192.6 248.7 191.1 246.9 194.6 245.6 190.6 241.6 191.1 243.6 187.3 241.1 184.1 245.1 184 245.6 180.1 248.2 183"/>
      <polygon points="156.6 162.1 154.7 165.8 157.6 168.6 153.2 169.1 153.1 173.1 149.9 170.2 146.6 172.6 147.1 168.1 143.1 167.1 146.6 165.1 145.1 160.6 149.6 162 151.6 158.6 152.6 162.4 156.6 162.1"/>
      <polygon points="253.1 210.1 250.6 213.3 252.6 216.6 248.1 216.1 247.1 220.1 244.8 216.6 241.1 218.1 242.1 213.9 238.6 212.1 242.6 210.5 242.1 206.1 245.8 208.5 248.4 205.6 249.6 209.9 253.1 210.1"/>
      <path d="M56.1,127.1l-1,4.5,4,1c1.2,1.1-3.4,1.5-3.5,2.3l1,4.2-3.6-1.4c-1.7.4-1.2,3.2-2.8,2.9l-1-3.8-4,.3,2.5-3.7-3-2.8h4.5s.5-4.5.5-4.5l2.8,2.9,3.6-1.9Z"/>
      <polygon points="216.2 195.1 218.5 195.5 239.2 206.3 239.5 207.2 238.9 209.1 237.8 209.2 215.7 197.2 216.2 195.1"/>
      <path d="M220.9,189.1c-1-.3-1.7-3.2,1-3.5,5.5-.7,11.7,1.1,17.3.5v3h-18.3Z"/>
      <path d="M198.1,182.6c.5.7-.8,3.5-2.1,2.9l-12.9-6.9,1-3,14,7Z"/>
      <path d="M158.1,164.1l7,2.8c1.5,4.6-5.6,1.6-7,.5s.1-2.2,0-3.2Z"/>
      <polygon points="143.6 161.6 143.1 164.6 136.1 163.1 137.4 160.1 143.6 161.6"/>
      <path d="M160.1,145c-.7.6-6.5-1.9-6.4-3.1.3-3.7,5.5-.3,6.9,1l-.4,2.2Z"/>
      <path d="M171.1,161l-2.1,1.1-2.7-4.4c3.1-2.5,4.3.6,4.9,3.4Z"/>
    </g>
  </g>
  <g id="gemini" class="st0">
    <g>
      <path d="M199.4,197l7.5,1-5.9,4.8,3.4,6.7-7-1.8-2.5,6.8c-.6.5-3.1-5.6-3-6.5l-8,2,3.5-6.7-6-3.8c-.7-1.1,6.7-1.7,6.9-2l-.4-7.4,6.2,4.4,5.3-4.9v7.5Z"/>
      <path d="M178.4,113l2.1,6.5,7.4-2c.5.5-2.9,4.7-3.2,5.5-1.2,2.9,4,3.4,5.2,6l-7.5,1,.5,7.5-5.8-4.9-5.7,4.4.5-7.5-7-1c-.3-1.2.2-.8.6-1.1.8-.6,5.3-3.1,5.3-3.6l-3.4-6.8,7,2.3c1-.3,2.7-7.4,4-6.3Z"/>
      <path d="M75.9,98.5l-5.5,5.3,4,6.2-7-.8-2,6.8-3.5-6-7.5,2.5,2.5-6.7-6.5-3.6,7.3-2.7-1.3-7,6.2,4c.6,0,3.4-4,4.2-4.8s0-1,1.1-.6l.5,7.5h7.5Z"/>
      <path d="M92.9,66.5l7-2.5-2.4,6.7,5.9,3.6-7,2.3,1.5,7.5c-.7.6-4.9-4-6.3-4s-3.6,4.3-5.2,5l-.5-7.5-7.5-.5,5.5-4.8-4-6.2,7.5,1c.6-.4,1-6.4,2.5-7l3,6.5Z"/>
      <path d="M100.9,81.5c-.3-.5,1.2-3.5,2.3-2.6l62.7,41.9c.8.9-1,3.2-2,2.5l-63-41.8Z"/>
      <polygon points="102.9 149.5 100.6 150.6 99.9 150.3 68.9 114.8 71.1 112.5 102.9 149.5"/>
      <path d="M184.9,192.5l-1,3c-12.7-6.4-25-13.8-37.4-20.7l1.7-2.7,36.8,20.5Z"/>
      <path d="M179.9,228.5l4.4-.4-2.5,3.7,3,2.8-4,.5v4c-1.5.2-2.3-2.2-3.3-2.4s-3.1,2.6-3.7,1.9l.3-4-3.3-1c-1-1,2.7-1.8,3-2.8l-1.5-3.7,4.2,1,2.3-3.5,1.1,3.9Z"/>
      <path d="M112.9,151l-.4,4.4,3.4,1.1c1.2,1.1-3.3,1.8-3.5,2l.9,4.5-4.2-1.5-2.3,3-.5-4-4.5.5,2.5-3.7-2.5-3.3h3.9c0,0,.6-4,.6-4l2.8,3,3.7-2Z"/>
      <path d="M219.4,142l1,3.8,4-.3-2.4,3.3,2.9,3.2-4,.2-.5,3.8-3.2-2.9-3.2,2.4.5-4.5-4-1,3.5-2.3-1-4.2,3.7,1.5c1.2-.3,1.1-3.2,2.8-3Z"/>
      <path d="M139.9,164.5l4.5-1.5-1.5,3.7c.2,1,4.6,1.8,3.5,2.8l-3.8,1,.3,4-3.2-2-3.2,3-.2-4-4.3-.5,3-3.3-2-3.7,4,1,1.3-4,1.8,3.5Z"/>
      <polygon points="245.9 140 245.6 144.1 249.4 145 245.9 147.8 247.4 151.5 242.9 150 240.9 153.5 239.9 149.5 235.4 150 237.8 146.8 234.9 143.5 239.2 143.1 239.4 139 242.2 142 245.9 140"/>
      <path d="M209.3,144.1l-.7,2.5-1.3.3-20-11.6c-1.8-.9-.5-3.6,1.1-3.2l20.8,12Z"/>
      <path d="M71.5,93.4c-.4-.7.3-1.8.7-2.4,2.1-3.3,5.9-6.5,8-10,.6-1.3,2.5.7,2.6,1.3.3,1.4-8,9.8-8.9,12l-2.4-.9Z"/>
      <path d="M183.8,225.5c-.5.4-3.1-.6-2.9-1.6,1-1.6,6.2-12.7,7.2-12.7s2.4,1.3,2.2,2.1l-6.5,12.3Z"/>
      <path d="M130.3,168c-1.1,1-11.8-4.8-14-5,.3-1.3.3-3.1,2-2.8s10.8,4.3,11.7,4.9.7,2.6.3,2.9Z"/>
      <polygon points="233.4 146 233.4 149 226.9 150 226.9 146.8 233.4 146"/>
    </g>
  </g>
  <g id="cancer" class="st0">
    <g>
      <path d="M257.4,96.6l-4.5,5.3,4.5,6.2-7.5-.5-1,7-4.7-5.9-6.8,3.4,2-7.2-6.5-3.1,7-2.8-2-7.5,6.7,3.5c.8-.3,4-6.4,4.8-5.5l.5,7h7.5Z"/>
      <path d="M149.9,131.6l7.5-1-4.4,6.3,4.9,5.2-7,.2-1,7.3-4.8-5.5-6.2,4,1.5-7.5-7-2c-.2-1.1,0-.8.6-1.1s5.7-2.2,5.9-2.4l-2.5-7.5,6.7,3,4.3-6,1.5,7Z"/>
      <path d="M159.9,137.1c-.3-1.2-1.2-2.7.3-3.4l72.9-28,1.2,2.6-1.1.9-73.3,27.9Z"/>
      <polygon points="106.3 121.6 105.8 124.6 105.2 124.6 59.4 112.9 59.9 110.6 106.3 121.6"/>
      <path d="M155.6,145.6l30,33.5-2.3,1.3-29-31.5c-1.2-1.4.3-2.3,1.3-3.3Z"/>
      <polygon points="196.9 181.1 195.9 185.3 199.9 187.1 195.9 189.1 196.9 194.1 192.4 192.1 189.9 196.1 188.9 191.1 183.9 191.6 186.9 187.4 183.9 184.1 188.9 184.1 189.4 179.1 192.6 183 196.9 181.1"/>
      <path d="M54.4,102.6l-.4,4.4c.5.8,4.5.1,4.9,1.6l-4,2,2,4.5-4.5-.8-1.7,4.3-2.2-4.3-4.5.8,2-4.2-3.5-2.5,4.3-1.2.2-4.5,3.7,2.5,3.7-2.5Z"/>
      <polygon points="120.9 119.1 119.9 122.8 123.4 124.8 119.6 126.6 120.4 130.6 116.7 128.6 113.9 131.6 113.4 127.6 108.9 127.6 111.8 124.4 109.4 121.1 113.8 121.1 114.4 117.1 117.2 120.6 120.9 119.1"/>
      <path d="M124.9,131.1c-.1-1.1.5-3,1.7-3l8.8,3.8c-1.1,5.1-7.2-.9-10.5-.8Z"/>
    </g>
  </g>
  <g id="leo" class="st0">
    <g>
      <polygon points="206.1 183 205.6 186 204.9 186 109.1 164.8 110.4 162.6 206.1 183"/>
      <path d="M107.7,118l7.5-.5-4,5.7,5,5.2-7.5.5-.5,7c-.8.9-4.4-5.4-5.2-5.4l-6.3,3.9,1.5-7.5-7-2,6.5-3.8-2.5-6.7,6.8,2.9,4.2-6.4,1.5,7Z"/>
      <path d="M224.1,199.5l-5.3-4.4-6.2,4.4,1-7.5-7.5-1.5,6-4.3-3-6.7,6.7,1.9c1-.3,2.2-4.6,2.8-5.7s-.3-.9,1-.7l2.5,6.8,7-1.8-3.5,6.7c.5.4,6.4,4.1,5.5,4.8l-7,.5v7.5Z"/>
      <path d="M43.1,159.5l7.5.5c.3,1.2-.3.8-.6,1.1-.8.7-4.8,3.5-4.8,4.1l3.9,6.3-7.5-1.5-2.3,7-3.5-6.5-6.7,2.5,2.5-6.7-6-4.3,6.9-1.6-.9-7.5,6.3,4,5.2-5v7.5Z"/>
      <path d="M207.6,122l-3.4,6.6,5.4,4.8-7.4,1.1.4,6.9-5.7-4.5-5.7,4.5.5-7.5-7-1c-1.2-1,5.5-4,5.5-4.3l-3-7.2,7.4,1.9,2.8-6.4,3,7,7.2-2Z"/>
      <path d="M269.6,93.5l-1.9,7.4,6.4,2.8-7,2.8,2,7c-2.2.4-4.8-3.4-6.6-2.9l-4.9,5.4-1-7.3-7,.3,4.5-5.7-4.5-5.7,7.4.4,1.6-7.4,4.3,5.9,6.7-2.9Z"/>
      <path d="M184.6,125.5l-.3,3.5-67.2-5.3.5-2.7c22.3,1.3,44.7,3.4,67,4.5Z"/>
      <path d="M93.1,132.4l-43.1,24.2-1.8.3-1-1.8,43.9-25.5c1.3-.8,2.4,2.2,2,2.8Z"/>
      <path d="M90.6,161v3s-39.8,3.5-39.8,3.5c-1.6-.1-1.5-2-1-3.1l40.8-3.5Z"/>
      <path d="M104.1,154.5l-.4,4.4,3.4,1.3-3,2.1,1,4.2-3.7-1.5-2.1,3.5-1.3-4-4.5.5,2-3.2-2.5-3c1-1.3,2.6-.6,4-.8l.5-4,2.8,3,3.7-2.5Z"/>
      <path d="M221.7,147.4c1.2.7,4.2-2.2,4.4-1.9l-1,4.5,4,1.3-3.5,1.8,1,4-3.7-.9-2.1,2.9-1.7-3.8-4,.3,2.5-3.7-3-2.8,4-.2.5-3.8c1.5-.5,2.3,2.2,2.6,2.4Z"/>
      <path d="M243.1,73l.6,3.4,4.5-.4-2.4,3.8,2.9,2.5c-.5,1.2-3.4.7-4.5.8v4.5s-2.9-2.9-2.9-2.9l-3.6,1.9.5-4.5-4-1,3.5-2-1-4.5,3.7,1.5c1.2-.3,1.1-3.2,2.8-3Z"/>
      <path d="M210.1,100h4s-2.9,3.2-2.9,3.2l1.9,3.8-4-.8-1,3.8-2.3-3.5-4.2,1,1.5-3.7c-.2-1-3.3-1.1-3-2.8l3.4-.6-.4-4.4,3.8,2.4,3.2-2.9v4.5Z"/>
      <path d="M233.6,86.9l-18.9,10.9c-1,.2-1.7-1.8-1.5-2.5l18.4-11.1c1.3-.7,2.4,2,2,2.7Z"/>
      <path d="M225.6,175.7c-.3,1-2.5,1.2-2.9,0-.6-1.9,0-8.4,0-10.9s-.9-3-.3-3.8,3.3-.5,3.3.3v14.5Z"/>
      <path d="M206.9,136.5c.5,0,8.2,5.9,8.5,6.5.7,1.5-.6,2-1.5,3l-8.7-7.2,1.8-2.2Z"/>
      <polygon points="248.9 85.5 255.1 92.3 252.9 94.4 246.6 87.7 248.9 85.5"/>
      <path d="M205.6,110.5l-2,9c-5.7-.3-.8-5.9-1-9.5l2.9.5Z"/>
    </g>
  </g>
  <g id="virgo" class="st0">
    <g>
      <path d="M262.8,123.7c.9-1.1,4.1,5,5.8,5l6.2-4-1.5,7.5,7,1.5c.2,1.2-.2.8-.6,1.1-.9.6-5.1,2.4-5.3,3.2l2.9,6.7-7.5-2.5-3.3,6.5-2.3-6.9-7.4,1.4,3.9-6.7c-.2-1.3-5-3.2-4.9-5.3h7v-7.5Z"/>
      <path d="M200.8,163.2l-5.3-5-5.4,4.5c-1.1-.7-.4-.9-.4-1.4,0-2,.7-4,.6-6.1l-7-1.3,5.4-4.6-2.9-6.7,7.4,1.9,2.8-6.4,2.7,6.8,7.5-1.3-4,6.3,6,4.7-7.5,1v7.5Z"/>
      <path d="M118.8,149.2l-7-.5,5.5-4.8-4-6.2,7.5,1.5,2-7c1.3-.3.8.3,1,.7,1,1.8,1.7,3.9,2.5,5.7l7.4-2.5-3,7.5,6,3c-.5,1.6-6.6,1.6-7,2l.5,7.5-5.7-4-5.8,5v-8Z"/>
      <polygon points="149.3 196.7 145.4 202.9 150.3 208.2 143.3 208.4 142.3 215.7 137.5 210.2 131.3 214.2 132.3 206.8 125.3 204.7 131.8 200.9 129.3 193.7 136.5 196.8 140.1 190.7 142.3 197.5 149.3 196.7"/>
      <path d="M126.3,197.2l-.5,3c-27.9-6.5-56-13.2-83.8-20.5l.3-3,84,20.5Z"/>
      <path d="M111.8,141.2v3s-74.5-9-74.5-9c0-1-.3-2.5.8-2.9l73.7,8.9Z"/>
      <polygon points="170.8 125.8 171.3 128.5 135.9 142.7 134.9 140.5 135.6 139.8 170.8 125.8"/>
      <path d="M30.3,125.7v4s4,0,4,0l-2.5,3.2,2,3.8-4.4-.4-1.3,3.4-1.8-3.5-4,1.5,1-4.2c-.1-.7-4.2-1.2-3-2.3l3.5-.5-.5-4.5c.6-.6,2.4,2.2,3.7,1.9s1.9-2.6,3.3-2.4Z"/>
      <path d="M36.8,169.7l-.3,4,3.8,1.2-2.9,2.1,1.5,4.2-3.7-.9-2.1,3.4-1.7-3.3-4,.3,1.5-3.7-3-2.8,3.9-.6v-3.9c1.4-.3,2.5,2.3,3.3,2.4s3-3,3.8-2.4Z"/>
      <path d="M181.3,121.2h4c.5,1.4-2.5,2.4-2.5,2.8l2,4.2-4-.8-1,3.8c-1.2.2-.8-.1-1.1-.6-2.3-3.5-.6-3-5.4-1.4l1.5-4c-.2-.2-4.5-1.5-3.5-2.5l3.8-1-.8-4,4.2,2,2.8-3v4.5Z"/>
      <path d="M275.4,102.1h3.9c0,0-2,3.3-2,3.3l2.5,3.2h-4c0,1.1.4,4-.8,4.5l-2.1-3-4.2,2,.8-4-3.8-1.7,3.5-1.8-1-4,3.7,1,2.3-3.5,1.1,3.9Z"/>
      <path d="M162.8,167.2l-.3,4,3.8,1-3.4,2.7,1.9,3.8-4.5-1.5-1.8,3.5-1.3-3.5-4.5,1,2-4.2c0-.4-4-2-3-2.8h4s0-4.5,0-4.5c1.7-.2,1.6,2.5,3.2,2.5s2.3-2,3.8-2Z"/>
      <path d="M169.9,78.1c1.5.9,3.8-2,4.4-1.4l-.8,4,3.8,2-3.8,1.5.8,4-3.6-1.4-2.8,2.9-.5-4h-4.5s2.5-3.3,2.5-3.3l-2.5-3.2h4.5s.5-4,.5-4l2.1,2.9Z"/>
      <path d="M228.4,143.1c1.5.9,3.8-2,4.4-1.4l-1,3.7,3.5,2.1-3.4,2,.9,3.7-3.6-1.4-2.8,2.9-.5-4h-4.5s2.5-3.3,2.5-3.3l-2.5-3.2h4.5s.5-4,.5-4l2.1,2.9Z"/>
      <path d="M178.8,115.2l-2.5.3-6-24.1c1.6-2.4,2.6-2,3.5.6,2.4,7,3.4,15.9,5,23.2Z"/>
      <path d="M152.2,168.1c-.8.5-2.2-.7-2.9-1.2-5.6-4-11.1-9.5-16.5-13.9l1.4-2,18.5,14.5c.9.3-.4,2.6-.6,2.7Z"/>
      <path d="M165.4,167.3l18.9-10.3c1.4-.6,2.7,2,1.5,3.1l-18.4,10.2c-1.3.7-2.6-2.2-2.1-2.9Z"/>
      <polygon points="255.8 136.8 256.3 139.7 235.9 145.2 235.4 143 236.2 142.3 255.8 136.8"/>
      <path d="M155.8,181.3c.3.4-.3,1.2-.5,1.6-1,1.8-6,8.7-7.4,10.1s-2.3,0-2.9-1.4l8-11.3,2.9,1Z"/>
      <polygon points="220.3 146.2 220.3 149.2 207.5 150.6 206.9 149.9 206.8 147.2 220.3 146.2"/>
      <polygon points="184.1 129.7 191.8 140 188.8 141.5 181.9 131.9 184.1 129.7"/>
      <path d="M272.8,114.2l-2.2,10c-.7.8-3.1.9-3.1-.5s2.1-8.5,2.4-9.1c.7-1.3,1.6-.2,2.9-.3Z"/>
    </g>
  </g>
  <g id="libra" class="st0">
    <g>
      <path d="M77.1,87.8l.5-7c.8-1,4.1,5.2,4.8,5.5l6.7-3.5-2,7.5,7,2.8-6.4,2.8,1.9,7.4-6.8-3.4-4.7,5.9-1-7-7.5.5,4.4-6.2-4.4-5.3h7.5Z"/>
      <polygon points="218.6 118.3 218.1 125.7 225.6 126.8 219.6 131.6 223.1 137.8 215.6 136.3 212.6 142.8 209.8 136.3 202.6 137.8 206 131.6 200.1 126.8 207.6 125.7 207.1 118.3 212.8 122.8 218.6 118.3"/>
      <path d="M169.1,67.8l-5.5,5.3,4,6.2-7.4-.9c-.5,1.7-.8,3.6-1.4,5.3s.2,1.3-.9,1.1l-3.6-6-6.7,3,2.5-7.2-6.5-3.8,7.5-2-1.5-7.5,6.7,4c1-1.3,2.2-3.1,3.4-4.2s.4-1.1,1.4-.8l.5,7.5h7.5Z"/>
      <path d="M202.4,118.9c.4.4,1.7,2.1,1.6,2.5l-1.8,1.8-38.7-39.2,2-2,36.8,36.9Z"/>
      <polygon points="93.1 88.7 92.6 86.5 93.4 85.9 143.4 74.9 144.5 77.5 93.1 88.7"/>
      <polygon points="225.6 185.3 222.9 185.7 222.2 184.9 217.1 142.3 220.1 142 225.6 185.3"/>
      <path d="M209.5,141.8l-6.5,41.4h-3c0-2.1.3-4.1.6-6.2,1.4-10.1,3-25.1,5.6-34.4s.1-1.3.7-1.4l2.6.6Z"/>
      <path d="M86.1,103.8l13.5,29.8c-3.4,2.4-3.5.3-4.9-2.6-4.1-8.4-7.4-17.1-11.5-25.5-.4-.9,2.8-1.8,2.9-1.7Z"/>
      <path d="M80.6,167.8l1,3.8,4-.3-2.4,3.7,2.4,3.3-4-.3-1,3.8-2.8-3-3.7,2,1-4.5c-7.9-1.9-.7-2.2,0-3l-1-4.5,3.7,2c.9-.2,1.8-3.9,2.8-3Z"/>
      <path d="M227.6,188.3v4.5s4,0,4,0c1,.8-3,2.4-3,2.8l2,4.2-4.4-1-1.1,3.5-2-3.5-4.5,1,2-4-3.5-1.8,3.9-1.3-.4-3.9,3.7,2,3.3-2.5Z"/>
      <path d="M101.6,134.3l1.8,3.5,3.7-1.5-1.4,3.8,3.4,2.7-4,1,1,4-3.7-2-3.3,3-.2-4-3.8-.5,2.5-3.2-2-3.2,4,.3c.8-.2.7-5,2-3.8Z"/>
      <path d="M106.1,179.2l4.5.5-2.9,2.8,1.9,3.7-4.5-.5-.5,3.5c-1.1,1.1-1.8-3.4-2.7-3.4l-3.8,1.4,1.5-3.7c-.3-1.1-4.6-1.7-3.5-2.8l3.8-1-.3-4,3.2,2,3.2-2.5v4Z"/>
      <polygon points="204.1 186.8 203.3 190.8 207.1 192.3 203.1 194.6 204.1 198.3 200.3 196.3 197.6 199.8 196.6 195.5 192.6 195.8 195.5 192.5 193.1 188.8 197 189.2 198.3 185.3 200.4 188.2 204.1 186.8"/>
      <path d="M104.6,173.8h-3c.3-7.2-1.4-15.6-.5-22.8s3.5-1,3.5,0v22.8Z"/>
      <path d="M85.5,168.7c-.5.3-3-1.1-2.8-2l12.5-18.9,2.3,1.7-12,19.2Z"/>
    </g>
  </g>
  <g id="scorpio" class="st0">
    <g>
      <path d="M205.9,110.9c.7.6-4.5,5-5,5.7l4.5,5.7-7-.8-2,7.3-4-6.5-7,3,2.5-6.7-6.5-3.8,7-2-1.5-7.5,6.5,4,4.5-5.5,1,6.8,7,.2Z"/>
      <path d="M42.4,179.9l-.8,7c.5.8,4.9,1.5,6.1,1.9s.9-.2.7,1l-6,2.8,2.5,7.2-6.7-2.5-3.6,6.5-2.3-7.5-7.5,1.5,4-6.2-5.5-5.3,7.5-.5c.2-1.1-.5-7,.8-7l4.5,5,6.2-4Z"/>
      <path d="M45.4,153.4l7,.5-5,4.8,4,6.2-7.5-1-1.5,7c-1.2.2-.8-.2-1.1-.6-.6-.9-2.4-5.7-3.1-5.8l-6.8,2.9,2.5-7.2c0-.4-4.6-2.2-5.4-2.7s-.9,0-.6-1.1l6.8-2-1.3-7.5,6.2,4.4,5.2-5.4.5,7.5Z"/>
      <path d="M252.4,95l.6,2.7-30.5,14.5c-1.5.9-3.1-1.4-2-2.5s8.6-4.3,10.3-5.2c5-2.5,14.9-7.9,19.7-9.3s1.5-.5,1.9-.2Z"/>
      <path d="M165.3,130c.8-.1,2.3,1.9,1.9,2.4l-25.3,18.3-1.4-2,24.8-18.7Z"/>
      <polygon points="262 87.8 266.4 87.4 264.1 91.2 266.9 94.4 262.7 94.9 262.4 98.9 259.6 95.9 256 97.9 256.2 93.9 252.4 92.2 255.9 90.1 254.4 86.4 258.6 87.4 260.7 84.4 262 87.8"/>
      <path d="M102.4,202.9h4.5s-2.5,3.7-2.5,3.7l2.5,2.6-4.4.3-.6,3.9c-1.6.3-1.5-2.6-2.8-3l-3.7,1.5.9-3.7c-.3-1.3-3.8-1.3-3.4-2.5s3.1-.3,3.5-1.6l-1-4.2,4.2,2,2.1-3c1.1.5.7,3,.8,4Z"/>
      <path d="M119.9,173.4l1.3,3,4.2-1-1.5,4,3.5,1.5-3.8,2,.8,4c-1.5,0-2.2-2-3.8-2s-1.6,2.7-3.2,2.5v-4c-1.1,0-4,.4-4.5-.8l2.9-2.6-1.9-3.7c.2-.2,2.8,1.1,4,.3s.1-3.7,2-3.3Z"/>
      <path d="M137.9,148.4l-.3,4,3.8,1c.3,1.2-.2.8-.7,1.1-3.4,2.3-2.2,1.4-1.4,5.4l-3.7-.9c-1.2.3-1.1,3.2-2.8,2.9l-.5-3.5-4.5.5,2-3.2-3-3.2,4.4-.6v-3.9c0,0,3.3,2.5,3.3,2.5l3.3-2Z"/>
      <polygon points="173.5 121.9 177.4 120.4 176.5 124.1 179.9 126.9 176.2 127.9 176.4 131.9 172.8 130 170 132.4 169.4 128.4 165.4 128.4 168.4 125.2 166 121.4 170 122.2 171.7 118.4 173.5 121.9"/>
      <path d="M246.4,137.4v3.9c0,0,4,1.3,4,1.3l-3.5,1.8,2,3.9-4.5-1-2,4-1-4-4.5,1,1.9-3.7-2.9-2.6c1-1.3,2.6-.6,4-.7v-4.5s3.2,2.5,3.2,2.5l3.2-2Z"/>
      <path d="M64.4,132.4l1,4,4-1-1.5,3.7,3,2.8-3.9.6v3.9c0,0-3.3-2-3.3-2l-3.2,2,.3-3.5-4.3-1,3.4-3.2-1.9-3.8,3.8,1.4c1.2-.2,1.6-5.1,2.7-3.9Z"/>
      <path d="M35.9,124.9l2.2,3.4,3.3-1.9-1,4.5,4,1.8-4,1.3,1,4.5-3.7-1.9-2.6,2.9c-1.3-1-.6-2.6-.7-4h-4.5s3-3.2,3-3.2l-2.5-3.2h3.9c0,0,.6-3.8.6-3.8l1-.2Z"/>
      <polygon points="260.9 110.9 260 114.6 263.9 116.9 260.2 118.4 261.4 122.4 257.3 120.9 255 124.4 253.9 119.9 249.9 120.4 252.4 117.2 249.4 113.9 253.5 113.7 253.9 109.9 257.2 112.8 260.9 110.9"/>
      <polygon points="74.9 202.4 72.5 205.2 74.4 208.9 70.4 208.6 69.4 212.4 66.7 209 63 210.9 64.4 206.4 61 204.7 64.4 203.4 64 198.9 67.6 200.9 70.4 197.9 70.9 201.7 74.9 202.4"/>
      <path d="M220.9,114.9l-2.9,3.3,1.9,3.7-4-1-1,4c-1.2.2-.8-.1-1.1-.6-2.3-3.5-.6-3-5.4-1.4l1.5-3.7-3.5-2.8,3.8-1-.3-4,3.2,2,3.2-2.5.5,3.8,4,.2Z"/>
      <polygon points="247.9 115.9 247.9 118.9 222.9 119.9 222.9 116.9 247.9 115.9"/>
      <path d="M237.9,136.9l-1.7,3-18-13.5c-.8-1.3.7-2.2,1.5-3l18.2,13.5Z"/>
      <path d="M77.5,204.4c4.2,1.7,11.2,1.8,15.1,3.6s.5,2.4-.4,3.3l-15.2-4.2.5-2.7Z"/>
      <polygon points="113.2 185.9 115.9 187.7 106.6 199.8 104.4 198.2 113.2 185.9"/>
      <path d="M47.8,194c1.7-.5,10.3,4.7,12.7,5.2,1.1.7,0,3.3-1.2,3.2l-12-5.5c-1.4-.4-.4-2.6.5-2.9Z"/>
      <path d="M124.9,173.4c-.4.3-3.1-.7-2.9-1.6.4-1.5,4.6-8.1,5.8-9.7s2.2.2,3.1,1.1l-5.9,10.2Z"/>
      <path d="M55.8,144c1.2-.5,2.4,1.5,1.9,2.4s-5.7,4.1-6.5,4.5c-1.6.9-2-.6-2.6-2l7.2-4.9Z"/>
      <path d="M38.4,168.9v7.8c0,.1-.6,1.7-.8,1.8h-2.7s.5-9.5.5-9.5h3Z"/>
      <path d="M37.4,147.4l-.9-6.8,2.6-1.1,1.6,7.2c-.2,1.1-2.5.7-3.4.7Z"/>
      <path d="M183.9,118.9l.8,3c-.9.6-3.9,2.3-4.8,1.8l-1-2.7,5-2Z"/>
    </g>
  </g>
  <g id="sagittarius">
    <g>
      <path d="M107.2,152l.5-7.5,4.8,5.5,6.7-3.5-1.5,7.5,7,2.3-6.5,2.8,2,7.5-7-3-3.3,6c-1.1.2-.6-.5-.8-1.2-.3-1.1-1-5.3-1.4-5.6l-7.5.8,4.5-6.2-5-5.3h7.5Z"/>
      <path d="M224.8,142.9c1.7,1,4.9-3.3,6.9-3.4l-1.3,7,6.8,2.7-6.4,3.5,2.4,6.8-7-3c-.2.9-3.1,6.9-4,6-.4-1.4-.7-6.2-2-6.7l-7,.7,4.4-5.8c0-.6-5.7-5-4.9-5.7l7-.2.5-6.8c.9-1.1,4.3,4.7,4.6,4.9Z"/>
      <path d="M39.7,111h7.5l-5,5.3,4.5,6.2-7-.8-1.5,7.3-4.3-6-7.2,3,2.5-7c-.2-.2-5-1.8-5.9-2.4s-.9,0-.6-1.1l6.5-2-2-7.5,6.7,3.4,4.8-5.9,1,7.5Z"/>
      <path d="M146.7,134l.5,7.3,7,.2c1,.9-4.7,4.1-4.9,5.3l3.9,6.2-7.5-1-1.5,7-3.8-6-7.2,2.5,2.4-6.7c-.3-1.1-7.1-3-5.9-4.3l6.4-1.5-.9-7.5,6.3,3.9c1.4-1.5,2.7-3.2,4.1-4.8s0-1,1.1-.6Z"/>
      <path d="M247.2,217.5c-.9,1-4.2-4.8-5.3-5l-6.2,4,1-7.5-7-1.5,6.4-4.2-2.9-6.8,7.2,2.5c.4,0,2.2-4.6,2.7-5.4s0-.9,1.1-.6l1.6,6.4,8-.9-4.4,6.3c0,.5,4,3.4,4.7,4.1s1,0,.6,1.1l-7.5.5v7Z"/>
      <path d="M67.6,120c.5,0,1,.2,1.3.5,10,9,25,16.3,34.6,25.4s1,1.2-.2,3.3l-37.3-26.8c-.3-.5,1-2.3,1.6-2.4Z"/>
      <path d="M184.6,109.5c.4,0,2.7,1.8,3.2,2.2,7.9,6.7,16.7,15.5,24.3,22.7,1,1,5.1,4.7,5.5,5.5s-1,1.9-1.6,2.5l-33.1-31.1,1.8-1.8Z"/>
      <path d="M187.2,55.5l-5.5,42.6c-.2,1.5-3.4.4-3.4,0l5.6-40.8.8-2.2,2.5.3Z"/>
      <path d="M229.7,161l10.3,32.5c-.9.7-2.5,1.7-3.2.1l-10.1-32.1,2.9-.5Z"/>
      <path d="M171.1,111c.7-.1,2.6,1.7,2,2.5l-21.5,24.5-2.2-1.8,21.8-25.2Z"/>
      <path d="M188.8,45l4-1-1.9,3.8,2.9,3.2-4,.2-.5,4.3-2.8-3-4.2,2,.8-4-3.8-1c-1.1-1.1,3.2-1.7,3.5-2.8l-1.5-3.7,3.8,1.4,2.7-3.4,1,4Z"/>
      <path d="M178.8,102.5l4.5-1.5-1.5,3.7c.4,1.3,3.3,1.2,3,2.8l-3.4.6.4,4.4c-.6.6-2.4-2.2-3.7-1.9s-1.9,2.6-3.3,2.4v-4s-4-.5-4-.5l3-2.7-2.5-3.8,4.4.4,1.3-3.4,1.8,3.5Z"/>
      <path d="M95.8,183.5l4.5-1-2,3.8,2.5,3.2-3.8.5-.2,4-3.2-3-3.2,2.5.3-4-3.8-1c-.3-1.2.2-.8.7-1.1,3.1-2.1,2.6-1.7.8-5.4l4.2,1,2.3-3.5,1,4Z"/>
      <path d="M124.2,203.5l-3,2.8,2,3.7-4.5-1-1.3,3.5c-1.2.3-1.5-2.9-1.8-3.5l-4,1,1.5-3.7c-.4-1.7-7.2-2,.8-3.8l-.3-4,3.3,2.4,2.9-2.4.5,4,3.8,1Z"/>
      <polygon points="72.2 90.5 72.3 95 76.2 95.5 72.8 98.2 74.7 102 71 101 68.8 105 67.3 101.2 63.3 102 64.7 98.3 61.7 95.5 65.7 95 65.8 90.5 69 93 72.2 90.5"/>
      <path d="M66.2,112l-1.4,3.6c.4,1.7,3.2,1.2,2.9,2.8l-3.8,1,.3,4-3.2-2.5-3.2,3-.5-4.3-4-.2,3-2.8-2-3.7,4.5.5,1-4,2.3,3.4,4.2-.9Z"/>
      <path d="M265.2,125.5l.5,3.8,4,.2-2.4,3.2,2.4,3.3h-4.5s-.5,4-.5,4l-2.7-3.4-3.8,1.9,1-4.5c-.6-.4-3.8-.6-3.5-1.8s2-.4,2.7-.8c2.2-1.3-.7-4.3-.2-4.9l4.2,2c.6,0,1.3-3.5,2.8-3Z"/>
      <polygon points="272.7 225.5 277.2 226 273.8 228.8 275.7 232.5 271.3 231.5 270.2 235.5 268.2 231.5 263.7 232.5 265.7 228.8 262.2 226 266.7 225.5 266.2 221.5 270 223.5 273.2 221 272.7 225.5"/>
      <polygon points="235.3 145.5 235.1 142.4 255 134.5 256.2 137.1 235.3 145.5"/>
      <path d="M99.2,181c-.7-.2-3.2-.7-2.9-1.7.5-1.7,5.8-11.3,7-13s.4-.9,1.1-.8l1.6.9.2,1.1-6.9,13.4Z"/>
      <path d="M250.3,215c-.4-.6,1.4-3,3-2.2s10.2,7.9,10.6,8.5.3.3.4.6l-1.7,2.2-12.3-9Z"/>
      <path d="M100.1,191c.7-.3,1,.2,1.4.4,1.3.7,9.1,6.1,10,7,1.4,1.4,0,2.3-1.4,2.9-1.6-1.6-11.4-7-11.4-8.7l1.4-1.7Z"/>
      <path d="M131.7,151.4l-9.5,1.5v-3c3.1.3,10.5-4.2,9.5,1.4Z"/>
      <path d="M53.2,117.5h-8l.2-2.5c.6-.9,6-.5,7.3-.3l.5,2.8Z"/>
      <path d="M62.3,109.9l2-6.4c1.3,0,3.1.4,2.8,2s-2.3,6.4-4.8,4.4Z"/>
    </g>
  </g>
  <g id="capricorn" class="st0">
    <g>
      <polygon points="173.5 188.6 181 188.6 176.1 193.9 180.5 200.1 173.1 199.7 171.5 206.6 167.2 200.6 160.5 203.6 162.5 196.1 156 193.3 162.8 190.6 161.5 183.6 167.7 187.1 172.5 181.6 173.5 188.6"/>
      <polygon points="246 77.1 253.5 78.1 247.6 82.8 251 89.1 244 87.8 241.5 94.6 238 87.8 231 90.1 234 82.9 228 78.6 235.5 77.6 234.5 70.1 240.7 74.6 246 69.6 246 77.1"/>
      <polygon points="47.5 89.1 55 89.1 50 94.4 54.5 100.1 47 99.6 45.3 107.1 41.5 100.6 34.5 104.1 36.9 97.3 30 93.8 36.8 91.1 35.5 83.6 41.8 87.6 46.5 81.6 47.5 89.1"/>
      <polygon points="227.4 84.2 228 87.1 149.1 100.5 148.6 98.7 149.4 97.7 227.4 84.2"/>
      <path d="M214,119.1l-34.5,65.3c-.8.5-2.5-.5-2.5-1.5l34.3-64.7,2.7,1Z"/>
      <path d="M99,160.1l1.7-2.9,55.2,29.3c.2.7-.5,2.7-1.5,2.5l-55.5-28.8Z"/>
      <path d="M53.9,105.2l32.6,39.2-2.2,2.2-33.2-39.7c.5-.8,1.9-2.3,2.9-1.8Z"/>
      <path d="M138.5,95.1c.9,4.2,2.9,2.8,6,2l-1.4,3.6c.4,1.7,3.2,1.2,2.9,2.8l-3.3,1,.3,4c-.6.6-2.4-2.2-3.7-1.9s-1.9,2.6-3.3,2.4v-4s-4,0-4,0l2.9-3.2-2.4-3.8,4.4.4c.3-.3.3-4.7,1.5-3.4Z"/>
      <path d="M67.5,96.1h4.5s-2.3,3.2-2.3,3.2l2.3,3.2-4,.2-.5,3.8c-.8,1-2.3-3-2.8-3l-4.2,1.5,1-3.7-3.4-2.1,3.4-2.1-.9-3.7,4.2,1.5,2.1-3c1.1.5.7,3,.8,4Z"/>
      <path d="M92.5,149.6l4-1.5-1,4.2,3.5,2.3-3.8,1,.3,4-3.7-1.9-2.6,2.9-.8-4.5h-4s2.9-3.2,2.9-3.2l-2.4-3.3,4.5.5c0-.6.8-4.5,1.5-4l1.5,3.5Z"/>
      <path d="M266,51.1l-1,4.5c4.7,1.2,4.6,1.9,0,3.1l1,4.5-3.7-2-2.8,3.5-.5-4.5-4.5.5,2.5-3.2-2.5-3,4-.5,1-4.3c1,.3,1.7,3.3,2.7,3.4s3.3-2.4,3.8-1.9Z"/>
      <path d="M101,93.6l1,3.5,4.5-1-1.9,3.8,3.4,2.7-4,.5v4.5s-3.3-2.5-3.3-2.5l-3.2,2.5-.2-4-3.8-.5c-.4-1.5,2.9-2.2,3-2.8l-2-4.2,4.2,1c1.2-.4,1.1-4.7,2.3-3.5Z"/>
      <path d="M222,104.6l-.5,4.5,4,1.5c-4.3,1-3.8,2.4-2.5,6l-4.2-1.5-2.3,3-1-4-4,.5,2-3.2-2.5-3.2h3.9c0,0,.6-4.5.6-4.5l2.8,2.9,3.6-1.9Z"/>
      <path d="M91,97.6c0,1.2.4,2.7-.8,3.5h-15.5c-1,0-1-3.5,0-3.5h16.2Z"/>
      <path d="M129,103.1l-16.2-1.1c-1.2-.4-.8-2.4-.8-3.4l16.2,1.1c1.2.4.8,2.4.8,3.4Z"/>
      <path d="M234.7,91.6c1.3.8,3,1.5,1.7,3.1l-8.4,10.6c-1.3.4-2.6-.6-2.4-1.9s7.9-9.4,9.2-11.8Z"/>
      <path d="M249.1,72.5c-.5-.9,4.9-9,6-8.7.9.6,2.2,1,1.7,2.3s-4.7,6.8-5,7.1c-.8.6-2.4-.2-2.7-.6Z"/>
    </g>
  </g>
  <g id="aquarius" class="st0">
    <g>
      <path d="M137.1,66.9l5.8,4.5,5.7-4.5-.8,7.5c.9,1.2,6.4.6,7.3,2.5l-6,3,3,7.5-6.7-2.4-3.6,6.4-2.7-6.8-7,1.8,3.5-6.7c-1.6-1.2-3.4-2.3-4.9-3.6s-.9,0-.6-1.1l7-.5v-7.5Z"/>
      <path d="M270.1,131.4l1,7,7.5-.5-4.4,5.8,4.4,5.7-7-.3-1.5,7.3-4.3-5.5-6.7,3,1.4-7.5-6.4-2.1c-.6-.7,5.8-2.9,6.5-3l-2-7.4c2.2,0,5.2,3.5,7.2,3s2.6-4.2,3.2-4.9,0-.9,1.1-.6Z"/>
      <path d="M88.1,69.9l-.9,7.5,6.5,1.5c.2,1.2-.2.8-.6,1.1-.9.6-5.7,2.4-5.8,3.1l2.4,6.8-7-3c-.1.9-3.1,6.9-4,6l-1.5-7-7.5,1,4.5-6.2c-.1-.8-6-4.4-5-5.3l7-.2,1-7.3,4.8,5.4,6.2-3.4Z"/>
      <polygon points="36.7 214.4 44.1 212.4 40.7 219.1 46.6 223.9 39.2 225 39.6 232.4 33.9 227.4 28.1 232.4 28.6 225 21.1 223.9 27.1 219.1 23.6 212.4 30.8 214.4 33.9 207.9 36.7 214.4"/>
      <path d="M68.1,164.4l7,.5c1,.8-4.9,4.4-5.5,4.8l3.5,6.7-7.5-1.5-2,6.5-3.8-6.4-6.7,1.9,3-6.7-6-4.3,7.3-1.5-.8-7,6.2,4.5,5.3-5v7.5Z"/>
      <path d="M257.1,137.4l-1,3c-18.1-7.4-36.3-15-54.2-23-.6-.7.4-2.9,1-2.9l54.3,22.9Z"/>
      <path d="M153.9,81.4l31,21.5c1.6.7-.3,3.6-1.3,3.3l-31.4-22.5,1.7-2.2Z"/>
      <path d="M192.1,103.9l1.8,3.5,4.7-2-1.5,5,4.5,1.8-4.5,1.8,1,5-4.5-2.5-2.3,4-1.2-4.8-4.5.3,3-4.2-3-3.3h5c.2-.2,0-5.9,1.5-4.5Z"/>
      <polygon points="40.6 210.9 37.6 209.9 55.5 179.9 58.1 181.2 40.6 210.9"/>
      <path d="M63.1,117.3c-.7.4-3.3-.5-3.4-1.2l13-25.9c1-1.7,3.6.1,2.7,1.7l-12.3,25.4Z"/>
      <polygon points="113.7 82.4 118.1 80.9 116.7 85.3 120.1 87.4 116.1 88.4 116.6 92.9 113.4 90.4 110.1 93.4 110.1 89.4 105.6 88.9 108.6 86.1 106.1 82.4 110.6 82.9 111.6 78.9 113.7 82.4"/>
      <path d="M62.1,122.4l-1.5,3.7c.3,1.1,4.6,1.7,3.5,2.8l-3.8,1,.3,4-3.7-2-2.8,3-.2-4-4.3-.5,2.9-3.2-1.9-3.3,4,.5,1-4,2.5,3.3,4-1.3Z"/>
      <path d="M59.6,139.4l3,16.4-2.2.5c-1.3-.3-3-14-3.8-16.2l3-.8Z"/>
      <path d="M92.6,85.9l.3-3,11,1.5c.2.4.3.8.3,1.3,0,.9-.2,1.7-1.2,1.7l-10.3-1.5Z"/>
      <polygon points="131.1 82.9 120.9 85.4 120.1 82.7 130.6 79.4 131.1 82.9"/>
    </g>
  </g>
  <g id="pisces" class="st0">
    <g>
      <path d="M72.5,135.7l5.2,5.1,6.3-4.1-.8,7,6.8,1.7-5.9,4.5,3.4,6.8-7.2-2.5-3.8,6.5-2.5-6.8-7,1.8,3.4-6.6-5.4-4.8c2.4-1,5.6.3,7.5-1.3v-7.2Z"/>
      <path d="M31.5,205.7c.6.6,1.4,6.1,2.8,6.5l6.7-2c0,2.2-3.5,5.2-3,7.2s4.2,2.6,4.9,3.2.9,0,.6,1.1l-6.9,1.1.4,7.4c-.8.8-4.3-4.4-5.8-4.5s-5.3,5.4-6.2,4.5l.3-7.5-6.8-1c-.3-1.2.2-.8.6-1.1.8-.6,5.3-3.1,5.3-3.6l-3.4-6.8,6.7,1.9c1.2-.3,2.2-4.5,2.8-5.7s.2-1.6,1-.7Z"/>
      <path d="M119.5,180.2l-.5,7.5,7.5,1-5.4,4.8,3.4,6.2-7-1.3-2.7,6.8-2.8-6.5-7.5,2.5,3-7.2c0-.4-4.6-2.7-5.4-3.2s-.9,0-.7-1.1l7-1-.5-7.5,5.7,4,5.7-5Z"/>
      <polygon points="215.1 197.7 222.5 196.7 218.5 203.2 224 207.7 216.7 208.7 216.5 215.7 211.2 210.8 205 214.7 206 207.3 199 205.7 205.5 201.5 202.5 194.7 209.2 197.2 213 190.7 215.1 197.7"/>
      <polygon points="103 193.7 103.5 196.4 102.7 197.1 70 204.7 69.5 201.7 103 193.7"/>
      <path d="M115.5,113.7l-2,3.8c0,.5,3.4,1.8,3,3.2h-4s0,4,0,4l-3.2-2.5-3.2,2.5-.2-4-3.8-1,3.4-2.8-1.4-3.7,3.7.9,1.8-3.4,2,3.8,4-.8Z"/>
      <polygon points="144.1 194.2 148 193.2 146.1 197 149 200.2 145 200.2 145 204.7 141.8 201.9 138 204.2 138.5 199.7 134.5 199.2 138 196.4 136.5 192.7 140.7 193.8 143 190.2 144.1 194.2"/>
      <path d="M63.5,196.7l1,3.8,4-.3-2.4,3.3,2.9,3.2h-4.5s-.5,4-.5,4l-2.8-3-3.7,2,.5-4.5-3.5-1.3,3.4-2-.9-3.7,3.7,1.5c1-.2,1.8-3.9,2.8-3Z"/>
      <path d="M211.5,222.2l-.5,4.5,4,.5c1.2,1-3.2,1.8-3.5,2.8l1.5,3.7-3.7-1-2.3,3.5-1.5-3.8-4,.8,1.9-3.7-2.9-2.8,4-.5v-4s3.3,2.5,3.3,2.5l3.7-2.5Z"/>
      <polygon points="63.5 177.2 62.5 181.4 66 183.7 62 184.7 63 188.7 59.3 186.9 56 189.7 56 185.7 51.5 185.7 54.4 182.5 52 179.2 56.5 179.2 57 175.2 59.8 178.7 63.5 177.2"/>
      <polygon points="241.5 190.7 241.6 194.7 245.5 195.2 242.6 198.1 244.5 201.7 240.1 201.3 239 204.7 237 201.3 232.5 202.2 234.5 198.2 231 195.7 235 195.2 235 190.7 237.8 193.2 241.5 190.7"/>
      <polygon points="234.6 232.2 239 231.7 236.6 235.4 239.5 238.2 235.5 238.4 234.3 242.7 231.7 239.8 228 241.7 228.8 237.7 225 236 228.5 234.2 227 230.2 230.8 231.6 233.5 228.2 234.6 232.2"/>
      <path d="M247.5,211.7l1,3.5,4.5-1-2,3.8,3.5,2.7-4,.5v4.5s-3.3-2.5-3.3-2.5l-3.2,2.5v-4.5s-4-.5-4-.5l2.9-2.8-1.9-3.7,4.4,1c.4-.3.9-4.5,2-3.5Z"/>
      <path d="M101,76.7c.2,3.9,1.7,4.2,5,2.5l-1.5,4.2c.4,1.3,3.3,1.2,3,2.8l-3.9.6v3.9c0,0-3.8-2.5-3.8-2.5l-2.8,2.5v-4.5s-4-.5-4-.5l3.4-2.7-1.9-3.8,4.4,1c.4-.3,1-4.6,2.1-3.5Z"/>
      <path d="M110.5,57.7l1.8,3,3.7-1.5-1,4,4,2-3.8,1.5.8,4-3.2-1.9-3.2,3.4-1-4.3-3.5.3,2.5-3.2-2.5-3.7,3.9.4c.4-.4.2-5.1,1.5-3.9Z"/>
      <polygon points="185.5 195.2 183 198.5 186 201.7 181.7 202.2 181.5 206.2 178.7 203.3 175 204.7 175.5 200.8 171.5 199.7 175 197.4 174 193.2 178.2 194.8 180 191.2 181.5 195.5 185.5 195.2"/>
      <path d="M281.5,209.2l-3,3.2,2.5,3.2-4.5-.5-1.3,4-2-3.5-3.7,1.5,1-4.2c-.2-1.1-7.1-1.3.2-3.3l-.3-4.5,3.7,2.5,2.8-3c-.3,3.7.7,5.1,4.5,4.5Z"/>
      <path d="M35.6,207.2c-.3-.5.6-1.7,1-2.2,2.9-3.9,8.7-10.1,12.2-13.8s3.8-5.2,5.7-1.7l-16.5,18.9-2.5-1.3Z"/>
      <path d="M101.8,122.3c.7-.1,2.6,1.7,2,2.5-4.6,4.4-8.4,9.6-12.8,14.3s-2.5,3.3-4.5.4l15.3-17.1Z"/>
      <path d="M172,197.7l-22.5,1v-3.5c6.4,1.1,15.2-1.6,21.3-.5s1.2,1.6,1.3,3Z"/>
      <path d="M73,158.2c.6.8-9.3,16.1-10.7,17.9l-2.2-.9,10-18,3,1Z"/>
      <path d="M102,91.2l6.5,19.5-3.5.5-6-18.7c-.4-1,2.8-1.3,3-1.2Z"/>
      <path d="M42.6,217.2c-.3-1-1.6-1.8-.6-2.7l12.5-8,1.3,2.8c-2.1.8-11.9,8.7-13.2,7.9Z"/>
      <path d="M187.3,196.8l12.9,1.5c1.3.4,1.2,3.4-.4,3.4l-13.1-1.9c-.4-.8-.5-2.7.6-3Z"/>
      <polygon points="266.5 213.3 267 216.2 255 218.7 254.5 216.4 255 215.5 266.5 213.3"/>
      <path d="M225,230.7c0,.8.3,3.2-.7,3.4l-9.8-1.9.5-3,10,1.5Z"/>
      <path d="M134,193.8v2.1c-.5,1.4-6.4.2-7.7-.2-2-.7-1.2-2,0-3.3l7.7,1.4Z"/>
      <polygon points="230.5 198.2 231 201.2 223 203.7 222 200.7 230.5 198.2"/>
      <path d="M242.5,212.7l-2.5-7.7c4.5-2.7,3.8,3.2,5.4,6l-2.9,1.7Z"/>
      <path d="M240.3,222.8l2.1,2.1-5.2,5.3c-4.2-2.7,1.1-5.1,3.1-7.4Z"/>
      <path d="M212,214.8l-1.7,6.5c-.9,1.1-2.2.2-3.3,0l2.3-6.5h2.7Z"/>
      <path d="M102,76.7c.9-1.6,3.5-9.1,5.8-5.5s-2.3,6-2.8,6.3c-1.1.7-1.9-.7-3-.8Z"/>
    </g>
  </g>
</svg>